<?xml version="1.0" standalone="no"?>
<!DOCTYPE svg PUBLIC "-//W3C//DTD SVG 20010904//EN"
 "http://www.w3.org/TR/2001/REC-SVG-20010904/DTD/svg10.dtd">
<svg version="1.0" xmlns="http://www.w3.org/2000/svg"
 width="150.000000pt" height="150.000000pt" viewBox="0 0 150.000000 150.000000"
 preserveAspectRatio="xMidYMid meet">

<g transform="translate(0.000000,150.000000) scale(0.100000,-0.100000)"
fill="#000000" stroke="none">
<path d="M1208 1140 c-11 -36 -10 -50 4 -47 19 3 37 29 37 52 -1 15 -4 13 -14
-10 l-13 -30 -4 30 c-3 30 -3 30 -10 5z"/>
<path d="M1121 1007 c-19 -45 -45 -101 -57 -123 -13 -23 -25 -56 -28 -75 -5
-34 -5 -34 7 -7 7 14 21 36 32 48 29 32 185 153 191 148 5 -6 -34 -46 -67 -70
-18 -12 -21 -19 -13 -28 9 -9 26 -4 72 19 54 27 59 28 55 11 -3 -11 -25 -31
-50 -46 -37 -21 -44 -30 -39 -47 3 -12 6 -37 6 -55 0 -20 4 -31 10 -27 6 3 10
-1 10 -9 0 -8 -4 -18 -10 -21 -5 -3 -14 -14 -19 -24 -9 -16 -6 -17 37 -10 26
4 57 5 70 2 l22 -5 0 176 c0 165 -1 176 -17 168 -10 -5 -42 -12 -71 -14 -46
-4 -52 -3 -48 11 5 12 2 11 -9 -3 -13 -17 -14 -15 -8 20 3 23 2 36 -3 31 -5
-5 -10 -13 -10 -18 -1 -5 -2 -14 -3 -20 0 -5 -5 -8 -10 -4 -5 3 -8 17 -5 30 9
49 -12 23 -45 -58z m39 7 c0 -8 -6 -14 -14 -14 -9 0 -12 7 -9 20 6 22 23 18
23 -6z"/>
<path d="M995 979 c-71 -37 -72 -42 -27 -88 22 -23 44 -41 50 -41 6 0 17 19
25 43 8 23 18 51 22 62 4 13 -4 7 -23 -15 -42 -48 -52 -31 -12 20 36 45 26 51
-35 19z"/>
<path d="M800 914 c0 -3 5 -14 10 -24 9 -17 8 -19 -7 -13 -10 4 -27 12 -39 20
-11 7 -39 12 -61 10 -38 -2 -40 -3 -25 -18 10 -9 19 -15 22 -13 3 1 12 -1 20
-6 10 -6 4 -10 -21 -15 -31 -6 -35 -10 -35 -36 0 -36 9 -37 24 -4 6 14 19 25
27 25 17 0 45 -23 45 -37 0 -4 7 -17 15 -27 14 -19 15 -19 35 -1 11 10 20 16
21 14 0 -2 3 -35 6 -74 3 -38 6 -71 7 -72 1 -2 12 5 25 13 22 16 23 21 17 98
-3 44 -8 100 -12 124 -6 40 -8 42 -40 42 -19 0 -34 -3 -34 -6z m10 -114 c0 -5
-2 -10 -4 -10 -3 0 -8 5 -11 10 -3 6 -1 10 4 10 6 0 11 -4 11 -10z"/>
<path d="M575 895 c-22 -7 -52 -10 -66 -8 -15 2 -31 -3 -38 -11 -10 -12 -6
-19 22 -40 34 -26 53 -34 43 -17 -3 4 6 6 21 3 21 -4 25 -2 20 11 -4 12 -2 14
11 10 15 -6 15 -5 3 10 -7 9 -18 14 -24 10 -6 -3 -7 -1 -3 5 5 8 15 6 35 -9
23 -17 31 -18 53 -8 l26 11 -25 24 c-14 13 -29 24 -32 23 -3 -1 -24 -7 -46
-14z"/>
<path d="M430 852 c0 -5 6 -17 14 -27 13 -18 14 -18 9 8 -5 24 -23 39 -23 19z"/>
<path d="M346 805 c-27 -29 -37 -32 -30 -7 3 9 -1 6 -9 -7 -14 -23 -15 -23
-25 -5 -14 24 -16 9 -2 -16 7 -13 7 -21 0 -25 -6 -4 -17 9 -25 27 -8 18 -14
26 -15 18 0 -9 7 -25 15 -38 13 -17 13 -27 5 -44 -11 -22 -11 -22 8 1 13 16
21 20 26 12 4 -6 12 -11 19 -11 6 0 2 7 -9 15 -17 13 -17 14 -1 15 9 0 17 4
17 10 0 5 8 14 18 19 16 9 18 6 13 -22 -4 -32 -5 -32 -13 -7 -6 19 -6 15 -3
-15 2 -22 -2 -65 -10 -95 -15 -56 -13 -80 4 -39 5 13 16 40 25 59 l16 35 -6
-50 c-4 -34 -2 -45 4 -36 6 8 8 21 4 29 -3 9 -1 13 5 9 5 -3 20 16 33 43 13
28 27 50 32 50 5 0 8 10 6 22 -5 32 20 34 27 1 11 -47 17 -60 22 -45 3 6 9 10
14 6 5 -3 9 0 9 5 0 6 -5 11 -11 11 -6 0 -9 7 -6 15 9 21 -42 58 -71 52 -16
-3 -27 2 -35 14 -15 25 -23 24 -51 -6z"/>
<path d="M1140 796 c0 -16 21 -56 30 -56 14 0 13 33 -2 48 -12 12 -28 16 -28
8z"/>
<path d="M746 783 c-11 -11 -7 -20 9 -20 8 0 15 4 15 8 0 11 -16 20 -24 12z"/>
<path d="M1031 754 c0 -11 3 -14 6 -6 3 7 2 16 -1 19 -3 4 -6 -2 -5 -13z"/>
<path d="M1113 717 c-8 -16 -9 -29 -3 -32 12 -8 23 17 18 41 -2 14 -6 12 -15
-9z"/>
<path d="M440 667 c0 -49 3 -57 19 -57 18 0 18 3 6 51 -19 70 -25 72 -25 6z"/>
<path d="M1185 689 c-4 -6 -5 -12 -2 -15 2 -3 7 2 10 11 7 17 1 20 -8 4z"/>
<path d="M240 636 c0 -2 8 -10 18 -17 15 -13 16 -12 3 4 -13 16 -21 21 -21 13z"/>
<path d="M416 458 c-15 -21 -16 -21 -36 -3 -22 20 -26 14 -8 -14 9 -15 7 -24
-10 -46 -24 -30 -28 -45 -12 -45 6 0 15 12 20 26 11 28 30 24 30 -7 0 -10 5
-19 10 -19 13 0 13 30 0 50 -6 10 -3 25 11 47 23 37 19 45 -5 11z"/>
<path d="M1166 473 c-3 -4 -23 -7 -43 -9 -21 -1 -44 -2 -50 -3 -17 -1 -43 -53
-38 -77 2 -10 4 -22 4 -26 2 -15 39 -8 65 13 17 13 26 30 26 49 0 16 7 30 15
34 12 4 15 -5 16 -52 l1 -57 10 55 c6 30 15 58 20 61 5 4 3 9 -5 12 -8 3 -18
3 -21 0z m-51 -42 c10 -34 -31 -81 -57 -65 -13 8 -2 65 15 76 20 13 35 9 42
-11z"/>
<path d="M452 453 c-13 -27 -15 -116 -3 -108 6 3 11 18 11 33 0 15 4 42 9 60
10 34 -2 45 -17 15z"/>
<path d="M490 460 c0 -5 11 -10 25 -10 33 0 32 -10 -10 -50 -43 -42 -46 -63
-7 -54 46 11 72 25 35 18 -41 -7 -41 1 -2 42 38 39 33 64 -11 64 -16 0 -30 -4
-30 -10z"/>
<path d="M617 462 c-19 -4 -47 -51 -47 -80 0 -37 24 -44 61 -19 58 39 48 113
-14 99z m32 -29 c15 -27 -14 -72 -46 -73 -18 0 -16 56 3 74 20 21 31 20 43 -1z"/>
<path d="M775 458 c-2 -7 -8 -31 -13 -53 l-9 -40 -17 38 c-9 21 -14 42 -11 47
4 6 0 10 -8 10 -10 0 -19 -18 -27 -51 -14 -58 -8 -75 10 -27 l12 33 14 -32
c23 -55 43 -37 57 50 5 35 1 51 -8 25z"/>
<path d="M816 448 c-8 -13 -16 -41 -18 -63 -3 -39 -2 -40 27 -37 17 2 34 8 40
13 6 6 -3 7 -24 3 -29 -6 -33 -4 -29 12 2 12 13 20 31 22 15 2 27 8 27 14 0 6
-11 8 -25 6 -28 -6 -31 0 -11 27 8 11 19 16 30 12 9 -4 16 -2 16 3 0 20 -50
10 -64 -12z"/>
<path d="M948 464 c-4 -3 -5 -11 -2 -18 2 -6 0 -33 -5 -59 -4 -26 -6 -47 -2
-47 22 0 81 23 81 31 0 5 -12 14 -27 20 l-27 10 30 19 c16 11 29 25 29 32 0
14 -66 24 -77 12z m48 -32 c-18 -18 -31 -10 -23 12 4 10 13 13 22 9 15 -5 15
-7 1 -21z m-12 -48 c18 -7 12 -24 -10 -24 -8 0 -14 7 -14 15 0 17 2 18 24 9z"/>
<path d="M340 320 c-10 -6 74 -10 248 -10 168 0 262 4 262 10 0 13 -489 13
-510 0z"/>
<path d="M990 320 c-33 -5 -13 -7 73 -8 72 -1 117 2 117 8 0 11 -118 11 -190
0z"/>
</g>
</svg>
